HIERARCHY
ROOT root
{
	OFFSET 0.000000 0.000000 0.000000
	CHANNELS 6 Xposition Yposition Zposition Zrotation Yrotation Xrotation
	JOINT lhip
	{
		OFFSET 0.058581 -0.082280 -0.017664
		CHANNELS 3 Zrotation Yrotation Xrotation
		JOINT lknee
		{
			OFFSET 0.043451 -0.386469 0.008037
			CHANNELS 3 Zrotation Yrotation Xrotation
			JOINT lankle
			{
				OFFSET -0.014790 -0.426874 -0.037428
				CHANNELS 3 Zrotation Yrotation Xrotation
				JOINT ltoe
				{
					OFFSET 0.041054 -0.060286 0.122042
					CHANNELS 3 Zrotation Yrotation Xrotation
					End Site
					{
						OFFSET 0.000000 0.000000 0.000000
					}
				}
			}
		}
	}
	JOINT rhip
	{
		OFFSET -0.060310 -0.090513 -0.013543
		CHANNELS 3 Zrotation Yrotation Xrotation
		JOINT rknee
		{
			OFFSET -0.043257 -0.383688 -0.004843
			CHANNELS 3 Zrotation Yrotation Xrotation
			JOINT rankle
			{
				OFFSET 0.019056 -0.420046 -0.034562
				CHANNELS 3 Zrotation Yrotation Xrotation
				JOINT rtoe
				{
					OFFSET -0.034840 -0.062106 0.130323
					CHANNELS 3 Zrotation Yrotation Xrotation
					End Site
					{
						OFFSET 0.000000 0.000000 0.000000
					}
				}
			}
		}
	}
	JOINT lowerback
	{
		OFFSET 0.004439 0.124404 -0.038385
		CHANNELS 3 Zrotation Yrotation Xrotation
		JOINT upperback
		{
			OFFSET 0.004488 0.137956 0.026820
			CHANNELS 3 Zrotation Yrotation Xrotation
			JOINT chest
			{
				OFFSET -0.002265 0.056032 0.002855
				CHANNELS 3 Zrotation Yrotation Xrotation
				JOINT lowerneck
				{
					OFFSET -0.013390 0.211636 -0.033468
					CHANNELS 3 Zrotation Yrotation Xrotation
					JOINT upperneck
					{
						OFFSET 0.010113 0.088937 0.050410
						CHANNELS 3 Zrotation Yrotation Xrotation
						End Site
						{
							OFFSET 0.000000 0.000000 0.000000
						}
					}
				}
				JOINT lclavicle
				{
					OFFSET 0.071702 0.114000 -0.018898
					CHANNELS 3 Zrotation Yrotation Xrotation
					JOINT lshoulder
					{
						OFFSET 0.122921 0.045205 -0.019046
						CHANNELS 3 Zrotation Yrotation Xrotation
						JOINT lelbow
						{
							OFFSET 0.255332 -0.015649 -0.022946
							CHANNELS 3 Zrotation Yrotation Xrotation
							JOINT lwrist
							{
								OFFSET 0.265709 0.012698 -0.007375
								CHANNELS 3 Zrotation Yrotation Xrotation
								End Site
								{
									OFFSET 0.000000 0.000000 0.000000
								}
							}
						}
					}
				}
				JOINT rclavicle
				{
					OFFSET -0.082954 0.112472 -0.023707
					CHANNELS 3 Zrotation Yrotation Xrotation
					JOINT rshoulder
					{
						OFFSET -0.113228 0.046853 -0.008472
						CHANNELS 3 Zrotation Yrotation Xrotation
						JOINT relbow
						{
							OFFSET -0.260127 -0.014369 -0.031269
							CHANNELS 3 Zrotation Yrotation Xrotation
							JOINT rwrist
							{
								OFFSET -0.269108 0.006794 -0.006027
								CHANNELS 3 Zrotation Yrotation Xrotation
								End Site
								{
									OFFSET 0.000000 0.000000 0.000000
								}
							}
						}
					}
				}
			}
		}
	}
}
MOTION
Frames: 16
Frame Time: 0.033333
0.035855 0.210636 0.996677 -179.670200 2.014632 94.569489 5.894827 2.641990 -0.404008 0.696056 -6.414318 -6.420425 -1.064309 9.045866 -2.812481 0.000000 -0.000000 0.000000 -1.979838 -4.039852 -2.887592 1.028789 1.480677 0.245935 4.034103 -6.090187 -3.938783 0.000000 -0.000000 0.000000 0.833658 1.930890 2.848443 0.501079 -0.126481 -4.431642 0.912688 -0.065755 -4.490560 -3.628975 1.086352 6.660090 3.393093 2.021146 -3.852157 -21.216620 9.290250 3.247198 -60.089841 -5.846457 4.314393 5.333416 -7.443937 6.848439 15.702788 -5.727621 -25.125100 20.509225 -5.477977 5.684798 56.871166 1.795648 5.959356 -11.007475 7.736129 -4.381063 -19.945007 7.957602 -22.766207 
0.035753 0.210484 0.996363 179.914946 2.128428 94.363676 5.999850 2.764939 -0.035287 0.741954 -6.153706 -6.582157 -1.112530 8.996859 -2.937021 0.000000 -0.000000 0.000000 -1.924822 -3.924869 -2.783848 1.034556 1.462312 0.327726 4.239681 -5.732393 -3.936331 0.000000 -0.000000 0.000000 1.015828 1.848120 3.061888 0.581060 -0.044898 -4.770672 0.850472 -0.112265 -4.043832 -3.437432 1.227864 6.682188 3.142047 1.885191 -3.630729 -21.135679 9.245058 3.317240 -60.155237 -6.044833 4.716832 6.016249 -9.011221 7.267826 14.431639 -6.983010 -24.846494 20.468311 -5.771923 5.877338 56.982083 1.699348 6.035500 -11.733703 7.992040 -4.849005 -18.549982 8.372724 -22.532001 
0.035303 0.209326 0.996520 179.805752 2.082640 94.396460 5.862484 2.581031 -0.153341 0.798469 -5.979609 -6.492208 -1.029645 9.015982 -2.899644 0.000000 -0.000000 0.000000 -2.032429 -3.794017 -2.969088 1.053280 1.365464 0.436053 4.290603 -5.661418 -3.842102 0.000000 -0.000000 0.000000 0.963128 1.692785 2.974872 0.767952 -0.163212 -4.497802 0.861883 -0.193056 -4.114889 -3.448229 1.226364 6.884673 3.001020 1.901357 -3.677962 -20.907909 9.280495 3.444321 -60.355769 -6.233299 5.245645 6.472213 -11.507645 7.889357 13.434551 -6.826597 -25.494323 20.381325 -6.014657 5.833891 57.007511 1.681419 6.115883 -12.246674 8.629823 -4.740032 -17.345948 8.612671 -21.993917 
0.035154 0.208500 0.996505 179.669860 2.097286 94.281642 5.857983 2.701890 -0.051622 0.787470 -5.919797 -6.495186 -0.925370 8.921824 -2.970593 0.000000 -0.000000 0.000000 -2.066239 -3.698544 -2.972477 1.059896 1.231204 0.503871 4.280833 -5.483120 -3.802629 0.000000 -0.000000 0.000000 1.018932 1.492552 3.181597 0.842567 -0.238907 -4.540396 0.922774 -0.276144 -4.137834 -3.340169 1.394697 7.074164 2.924280 2.084771 -3.435571 -20.666351 9.230603 3.378775 -60.367741 -6.641889 5.302436 6.618250 -13.667807 7.607950 13.182795 -6.930266 -24.428692 20.143653 -6.153146 5.619405 57.206222 1.612339 6.307402 -12.608302 9.502458 -4.615467 -16.723440 9.255811 -20.799772 
0.035158 0.208018 0.996390 179.647052 2.145389 94.206372 5.916162 2.787173 0.011357 0.787287 -5.847993 -6.587438 -1.032129 8.771611 -2.902649 0.000000 -0.000000 0.000000 -2.003742 -3.643869 -2.959223 1.015649 1.146695 0.534668 4.207298 -5.385722 -3.805400 0.000000 -0.000000 0.000000 1.015727 1.384865 3.082105 0.992342 -0.332643 -4.195636 0.989909 -0.264284 -4.170344 -3.295327 1.511929 7.166947 2.858592 2.049591 -3.359081 -20.589232 9.004199 3.445993 -60.428132 -6.866696 5.395188 7.037862 -15.082584 7.495209 12.580787 -6.978178 -24.065035 20.171509 -5.965424 5.689405 57.254547 1.713863 6.362179 -13.012218 10.246435 -4.570864 -16.288968 9.523990 -20.309847 
0.034892 0.207628 0.996209 179.487522 2.131554 94.105830 5.868910 2.681577 0.157217 0.784466 -5.644958 -6.615540 -0.958253 8.713330 -2.895332 0.000000 -0.000000 0.000000 -2.067939 -3.533093 -2.974406 1.041871 1.039788 0.661090 4.207620 -5.177616 -3.842677 0.000000 -0.000000 0.000000 1.019706 1.409426 2.968383 1.141670 -0.388158 -3.853284 1.014288 -0.211218 -4.181730 -3.268812 1.712120 7.262226 2.782130 2.019776 -3.192375 -20.549239 8.612096 3.493347 -60.461215 -7.141989 5.660476 7.517303 -16.729522 7.292364 12.056222 -7.136880 -23.592308 20.329317 -5.668312 5.830020 57.269405 1.772724 6.457329 -13.707567 11.495090 -4.852461 -15.647689 9.652448 -19.778996 
0.034779 0.206848 0.996300 179.382231 2.148412 93.997738 5.874723 2.640772 0.244812 0.757226 -5.491626 -6.588200 -0.895660 8.666063 -2.958496 0.000000 -0.000000 0.000000 -2.059184 -3.452568 -2.986521 1.002926 0.962063 0.763547 4.202920 -5.055325 -3.826593 0.000000 -0.000000 0.000000 1.079973 1.347737 3.126441 1.205874 -0.439770 -3.821890 1.064777 -0.255682 -4.217623 -3.148142 1.841199 7.442907 2.700531 2.154965 -3.026910 -20.402225 8.549538 3.431127 -60.567511 -7.270952 5.762999 7.811794 -18.326348 7.553947 11.649079 -7.284930 -23.165869 20.313356 -5.707149 5.664223 57.366743 1.998685 6.632411 -14.082733 12.778042 -4.349415 -14.675264 10.157461 -18.927874 
0.034381 0.206076 0.996267 179.279663 2.126479 93.897735 5.794002 2.624757 0.292798 0.791605 -5.317846 -6.568317 -0.896988 8.576534 -2.952038 0.000000 -0.000000 0.000000 -2.117911 -3.432118 -2.999370 0.987929 0.868781 0.870014 4.171846 -4.842640 -3.824513 0.000000 -0.000000 0.000000 1.162688 1.368663 3.095184 1.305310 -0.511225 -3.507323 1.046966 -0.167237 -4.290461 -3.174681 1.832050 7.652322 2.658973 2.146312 -2.985883 -20.351481 8.227786 3.336224 -60.778020 -7.434842 5.956710 8.327543 -19.423952 7.810316 11.538042 -7.360462 -22.419957 20.283316 -5.433017 5.717482 57.663275 2.055666 6.779177 -14.904435 14.467867 -4.125175 -13.911397 10.437354 -18.179400 
0.034074 0.205525 0.996285 179.177396 2.108019 93.817022 5.737896 2.505365 0.368634 0.798043 -5.127445 -6.660422 -0.841190 8.537984 -2.816578 0.000000 -0.000000 0.000000 -2.168199 -3.453668 -2.979931 0.968396 0.744227 0.874471 4.174437 -4.588967 -3.769628 0.000000 -0.000000 0.000000 1.202675 1.356523 3.009575 1.421910 -0.605221 -3.223373 1.107123 -0.134181 -4.273753 -3.315932 1.902244 7.646012 2.467265 2.174295 -2.821551 -20.521023 7.954627 3.315748 -60.850604 -7.542330 6.090468 8.869479 -20.321542 7.319768 11.293577 -7.432138 -22.033138 20.452063 -5.060702 5.855228 57.445960 2.248044 7.074748 -15.364719 16.089590 -3.864805 -13.195779 10.894147 -17.628854 
0.033605 0.204607 0.996219 179.136174 2.076044 93.840902 5.644599 2.578468 0.279917 0.859760 -5.164694 -6.714451 -0.953914 8.428932 -2.661011 0.000000 -0.000000 0.000000 -2.253256 -3.475611 -3.094966 1.006041 0.597160 0.898041 4.158087 -4.405415 -3.726676 0.000000 -0.000000 0.000000 1.316739 1.314064 3.039840 1.494634 -0.685325 -3.164312 1.151222 -0.128997 -4.332587 -3.415402 2.056635 7.699763 2.351125 2.271243 -2.778988 -20.411061 7.710650 3.372805 -61.154127 -7.654417 6.107026 9.074071 -21.004223 6.786097 11.523429 -7.308096 -22.434109 20.475355 -4.856699 5.841120 57.466033 2.483793 7.478788 -16.109151 18.030479 -3.410820 -13.307459 11.323203 -16.221357 
0.033341 0.204053 0.996202 179.147479 2.032477 93.830233 5.598933 2.463894 0.258458 0.822897 -5.099065 -6.708470 -0.971068 8.367726 -2.585954 0.000000 -0.000000 0.000000 -2.317657 -3.441465 -3.113813 1.005521 0.466630 0.867847 4.098896 -4.297637 -3.680340 0.000000 -0.000000 0.000000 1.374256 1.273019 3.014059 1.555375 -0.724176 -3.082974 1.186170 -0.183588 -4.293588 -3.529095 2.136927 7.690588 2.207954 2.413393 -2.841107 -20.461900 7.675497 3.384325 -61.224711 -7.860460 6.112817 9.168152 -21.268701 5.605946 11.185501 -7.191161 -24.137131 20.663430 -4.761973 5.837103 57.173385 2.799396 7.921981 -16.397100 19.415508 -3.327519 -13.328249 11.968298 -15.714748 
0.032933 0.203347 0.996246 179.121992 1.980497 93.797153 5.495910 2.329361 0.264951 0.845102 -4.941470 -6.737108 -0.929982 8.396987 -2.561919 0.000000 -0.000000 0.000000 -2.404733 -3.361594 -3.160324 1.011480 0.382030 0.920097 4.070790 -4.257148 -3.659532 0.000000 -0.000000 0.000000 1.477529 1.215125 3.138280 1.555712 -0.739030 -3.026201 1.183243 -0.196972 -4.289809 -3.573368 2.140751 7.411827 2.169587 2.576656 -2.967535 -20.487556 7.599724 3.494635 -61.228343 -7.960645 6.032281 9.085980 -21.752063 3.988094 10.817433 -7.201856 -26.546425 20.709203 -4.665033 5.849881 56.975505 3.034739 8.461464 -16.620878 20.981481 -3.292061 -13.526805 12.151713 -15.118048 
0.032735 0.202690 0.996301 179.093716 1.973006 93.826921 5.459332 2.253847 0.181498 0.844321 -4.803724 -6.713842 -0.899776 8.395426 -2.503741 0.000000 -0.000000 0.000000 -2.427870 -3.316062 -3.310220 1.015020 0.309944 1.036669 4.092056 -4.213766 -3.667734 0.000000 -0.000000 0.000000 1.554756 1.235039 3.131167 1.587616 -0.715301 -2.921389 1.223433 -0.208014 -4.240324 -3.635890 2.175343 7.103130 2.040606 2.637372 -3.190662 -20.581323 7.570234 3.393574 -61.210934 -7.746854 6.145119 9.084222 -22.629572 3.386327 10.631623 -7.118380 -27.131896 20.710558 -4.656158 5.862189 56.657764 2.882788 8.856618 -16.894926 23.391874 -3.308322 -13.632969 11.977473 -15.130445 
0.032460 0.202221 0.996527 179.070283 1.966763 93.758731 5.421570 2.324533 0.185498 0.878156 -4.759770 -6.666621 -0.939270 8.254125 -2.621518 0.000000 -0.000000 0.000000 -2.459858 -3.163656 -3.304614 1.019950 0.160731 1.087431 4.174245 -4.127610 -3.796061 0.000000 -0.000000 0.000000 1.669192 1.261873 3.359617 1.522357 -0.648927 -2.792649 1.315327 -0.226275 -4.282658 -3.636282 2.130809 6.289772 1.892691 2.759700 -3.527599 -21.079560 7.529334 3.184425 -60.744499 -6.911342 6.367319 9.664888 -24.981343 3.500811 10.848944 -7.265784 -23.401144 20.946142 -4.694608 5.739040 55.630974 1.745422 9.060924 -16.693346 27.773088 -3.517539 -13.080552 12.370510 -15.765942 
0.032095 0.201931 0.996666 179.180318 1.893934 93.803700 5.312968 2.274685 -0.015863 0.901331 -4.667289 -6.448933 -0.889903 8.088237 -2.764900 0.000000 -0.000000 0.000000 -2.554357 -2.777441 -3.477280 1.007994 -0.263650 1.302565 4.198110 -4.202946 -3.877013 0.000000 -0.000000 0.000000 1.684469 1.192928 3.646002 1.484449 -0.522339 -2.890153 1.389829 -0.318556 -4.298885 -3.558225 2.070873 5.329273 1.696956 2.754550 -4.155856 -21.623285 7.880038 3.054256 -59.767935 -5.857928 6.873374 9.878889 -28.966062 4.837362 9.531492 -8.434452 -19.694945 21.134109 -5.374360 5.381793 53.850362 0.057656 9.719301 -15.717712 34.299591 -1.877681 -11.649891 13.243597 -16.229594 
0.031839 0.201876 0.996551 179.248050 1.817983 93.963414 5.210049 2.057612 -0.208274 0.911541 -4.507926 -6.524364 -0.884886 8.068285 -2.727782 0.000000 -0.000000 0.000000 -2.691715 -2.815394 -3.699546 1.081204 -0.374677 1.350595 4.360013 -4.096134 -3.888354 0.000000 -0.000000 0.000000 1.604637 1.249008 3.543777 1.530829 -0.444300 -2.772518 1.501702 -0.408717 -4.205955 -3.660135 1.949662 4.357211 1.664815 2.924753 -4.999271 -21.661871 8.399078 2.843816 -58.766715 -4.824021 7.953178 8.576572 -33.864052 6.922491 7.937243 -9.429239 -18.997001 20.963014 -6.190141 5.036302 51.731240 -1.372928 10.684073 -13.855450 41.468243 0.880200 -8.143978 14.680871 -16.741838 
